<!DOCTYPE svg PUBLIC "-//W3C//DTD SVG 20010904//EN" "http://www.w3.org/TR/2001/REC-SVG-20010904/DTD/svg10.dtd">
<svg version="1.0" xmlns="http://www.w3.org/2000/svg" width="1407px" height="306px" viewBox="0 0 14070 3060" preserveAspectRatio="xMidYMid meet">
<g id="layer101" fill="#002060" stroke="none">
 <path d="M1900 2780 l0 -230 50 0 c38 0 50 4 50 15 0 12 6 11 33 -5 39 -24 106 -26 147 -5 94 49 94 271 0 320 -43 22 -116 19 -151 -6 l-29 -20 0 80 0 81 -50 0 -50 0 0 -230z m212 3 c24 -22 25 -109 1 -135 -20 -22 -61 -23 -85 -1 -24 22 -25 109 -1 135 20 22 61 23 85 1z"/>
 <path d="M5060 2780 l0 -230 50 0 c38 0 50 4 50 15 0 12 6 11 33 -5 39 -24 106 -26 147 -5 44 23 70 82 70 160 0 78 -26 137 -70 160 -43 22 -116 19 -151 -6 l-29 -20 0 80 0 81 -50 0 -50 0 0 -230z m212 3 c24 -22 25 -109 1 -135 -20 -22 -61 -23 -85 -1 -24 22 -25 109 -1 135 20 22 61 23 85 1z"/>
 <path d="M2390 2872 c-55 -27 -80 -74 -80 -149 0 -127 46 -176 170 -181 62 -2 81 1 108 17 46 30 72 77 72 134 l0 47 -120 0 c-100 0 -120 3 -120 15 0 8 9 24 20 35 25 25 100 27 153 5 20 -8 39 -15 42 -15 3 0 5 20 5 45 0 42 -1 44 -37 54 -61 17 -173 13 -213 -7z m160 -203 c0 -6 -5 -19 -10 -30 -21 -38 -120 -15 -120 28 0 9 17 13 65 13 39 0 65 -4 65 -11z"/>
 <path d="M3669 2867 c-24 -13 -57 -43 -74 -66 -27 -38 -30 -52 -33 -129 -3 -76 0 -93 21 -132 13 -25 43 -58 66 -75 37 -26 53 -30 123 -34 45 -2 98 2 120 8 37 12 38 13 38 61 0 54 -3 56 -40 35 -14 -8 -49 -14 -77 -15 -44 0 -58 5 -85 29 -32 29 -33 31 -33 111 0 80 1 82 33 111 27 24 41 29 85 29 28 -1 63 -7 77 -15 37 -21 40 -19 40 34 0 46 -2 50 -31 60 -18 6 -67 11 -109 11 -61 0 -86 -5 -121 -23z"/>
 <path d="M4080 2872 c-57 -28 -80 -73 -80 -157 0 -84 23 -129 80 -157 47 -24 153 -24 200 0 57 28 80 73 80 157 0 58 -4 79 -23 106 -32 48 -79 69 -157 69 -42 0 -77 -6 -100 -18z m142 -89 c24 -22 25 -109 1 -135 -20 -22 -61 -23 -85 -1 -24 22 -25 109 -1 135 20 22 61 23 85 1z"/>
 <path d="M5789 2861 c-24 -24 -29 -38 -29 -76 0 -88 36 -115 156 -115 l76 0 -15 -22 c-13 -20 -23 -23 -78 -23 -35 0 -74 4 -86 8 -22 8 -23 6 -23 -36 0 -42 2 -45 31 -51 60 -12 179 -7 209 9 50 26 60 59 60 200 l0 125 -50 0 c-39 0 -50 -4 -50 -16 0 -13 -5 -12 -29 5 -21 15 -44 21 -86 21 -49 0 -60 -4 -86 -29z m173 -68 c8 -10 18 -29 21 -42 6 -23 5 -23 -46 -17 -28 4 -54 9 -59 12 -10 6 -11 48 -1 57 13 14 70 7 85 -10z"/>
 <path d="M6308 2869 c-24 -17 -28 -18 -28 -5 0 13 -11 16 -50 16 l-50 0 0 -230 0 -230 50 0 50 0 0 80 0 80 33 -20 c39 -24 106 -26 147 -5 44 23 70 82 70 160 0 78 -26 137 -70 160 -42 22 -119 19 -152 -6z m84 -86 c24 -22 25 -109 1 -135 -20 -22 -61 -23 -85 -1 -24 22 -25 109 -1 135 20 22 61 23 85 1z"/>
 <path d="M6880 2872 c-55 -27 -80 -74 -80 -149 0 -127 46 -176 170 -181 62 -2 81 1 108 17 46 30 72 77 72 134 l0 47 -120 0 c-100 0 -120 3 -120 15 0 8 9 24 20 35 25 25 100 27 153 5 20 -8 39 -15 42 -15 3 0 5 20 5 45 0 42 -1 44 -37 54 -61 17 -173 13 -213 -7z m160 -203 c0 -6 -5 -19 -10 -30 -21 -38 -120 -15 -120 28 0 9 17 13 65 13 39 0 65 -4 65 -11z"/>
 <path d="M7500 2872 c-55 -27 -80 -74 -80 -149 0 -127 46 -176 170 -181 62 -2 81 1 108 17 46 30 72 77 72 134 l0 47 -120 0 c-100 0 -120 3 -120 15 0 8 9 24 20 35 25 25 100 27 153 5 20 -8 39 -15 42 -15 3 0 5 20 5 45 0 42 -1 44 -37 54 -61 17 -173 13 -213 -7z m160 -203 c0 -6 -5 -19 -10 -30 -21 -38 -120 -15 -120 28 0 9 17 13 65 13 39 0 65 -4 65 -11z"/>
 <path d="M8439 2867 c-24 -13 -57 -43 -74 -66 -27 -38 -30 -52 -33 -129 -3 -76 0 -93 21 -132 13 -25 43 -58 66 -75 37 -26 53 -30 123 -34 45 -2 98 2 120 8 37 12 38 13 38 61 0 54 -3 56 -40 35 -14 -8 -49 -14 -77 -15 -44 0 -58 5 -85 29 -32 29 -33 31 -33 111 0 80 1 82 33 111 27 24 41 29 85 29 28 -1 63 -7 77 -15 37 -21 40 -19 40 34 0 46 -2 50 -31 60 -18 6 -67 11 -109 11 -61 0 -86 -5 -121 -23z"/>
 <path d="M8850 2872 c-57 -28 -80 -73 -80 -157 0 -84 23 -129 80 -157 47 -24 153 -24 200 0 57 28 80 73 80 157 0 58 -4 79 -23 106 -32 48 -79 69 -157 69 -42 0 -77 -6 -100 -18z m142 -89 c24 -22 25 -109 1 -135 -20 -22 -61 -23 -85 -1 -24 22 -25 109 -1 135 20 22 61 23 85 1z"/>
 <path d="M9643 2883 c-20 -4 -23 -11 -23 -50 0 -42 1 -45 23 -38 12 4 50 9 84 12 52 4 64 3 69 -11 9 -23 4 -26 -73 -42 -90 -19 -113 -41 -113 -109 0 -75 27 -98 121 -103 38 -2 89 -1 114 2 l45 7 0 46 c0 45 0 45 -27 37 -16 -5 -53 -8 -83 -9 -44 0 -55 3 -58 17 -2 13 6 18 35 23 126 22 153 41 153 111 0 89 -37 115 -162 113 -46 -1 -93 -4 -105 -6z"/>
 <path d="M10050 2872 c-55 -27 -80 -74 -80 -149 0 -127 46 -176 170 -181 62 -2 81 1 108 17 46 30 72 77 72 134 l0 47 -120 0 c-100 0 -120 3 -120 15 0 8 9 24 20 35 25 25 100 27 153 5 20 -8 39 -15 42 -15 3 0 5 20 5 45 0 42 -1 44 -37 54 -61 17 -173 13 -213 -7z m160 -203 c0 -6 -5 -19 -10 -30 -21 -38 -120 -15 -120 28 0 9 17 13 65 13 39 0 65 -4 65 -11z"/>
 <path d="M11663 2883 c-20 -4 -23 -11 -23 -50 0 -42 1 -45 23 -38 12 4 50 9 84 12 52 4 64 3 69 -11 9 -23 4 -26 -73 -42 -90 -19 -113 -41 -113 -109 0 -75 27 -98 121 -103 38 -2 89 -1 114 2 l45 7 0 46 c0 45 0 45 -27 37 -16 -5 -53 -8 -83 -9 -44 0 -55 3 -58 17 -2 13 6 18 35 23 126 22 153 41 153 111 0 89 -37 115 -162 113 -46 -1 -93 -4 -105 -6z"/>
 <path d="M12066 2867 c-53 -30 -76 -77 -76 -152 0 -116 61 -175 180 -175 104 0 110 4 110 62 0 44 -2 49 -17 42 -10 -4 -39 -9 -65 -12 -62 -5 -88 19 -88 83 0 64 26 88 88 83 26 -3 55 -8 65 -12 15 -7 17 -2 17 42 0 58 -6 62 -110 62 -49 0 -75 -6 -104 -23z"/>
 <path d="M12379 2861 c-24 -24 -29 -38 -29 -76 0 -88 36 -115 156 -115 l76 0 -15 -22 c-13 -20 -23 -23 -78 -23 -35 0 -74 4 -86 8 -22 8 -23 6 -23 -36 0 -42 2 -45 31 -51 60 -12 179 -7 209 9 50 26 60 59 60 200 l0 125 -50 0 c-39 0 -50 -4 -50 -16 0 -13 -5 -12 -29 5 -21 15 -44 21 -86 21 -49 0 -60 -4 -86 -29z m173 -68 c8 -10 18 -29 21 -42 6 -23 5 -23 -46 -17 -28 4 -54 9 -59 12 -10 6 -11 48 -1 57 13 14 70 7 85 -10z"/>
 <path d="M1110 2660 l0 -220 150 0 150 0 0 40 0 40 -95 0 -95 0 0 45 0 45 90 0 90 0 0 40 0 40 -90 0 -90 0 0 55 0 55 100 0 100 0 0 40 0 40 -155 0 -155 0 0 -220z"/>
 <path d="M1470 2874 c0 -3 27 -40 59 -83 l60 -78 -55 -76 c-30 -41 -54 -78 -54 -81 0 -3 27 -6 59 -6 59 0 59 0 87 45 l28 44 29 -44 c29 -45 30 -45 88 -45 33 0 59 3 59 6 0 4 -22 37 -50 74 -27 37 -50 73 -50 80 0 7 25 46 55 86 30 40 55 76 55 79 0 3 -27 5 -59 5 -59 0 -60 0 -92 -45 -18 -25 -34 -45 -35 -45 -2 0 -17 20 -34 45 -31 45 -31 45 -90 45 -33 0 -60 -3 -60 -6z"/>
 <path d="M2740 2715 l0 -165 50 0 c39 0 50 4 50 16 0 13 5 12 26 -5 18 -14 41 -21 70 -21 l44 0 0 45 0 45 -43 0 c-24 0 -51 6 -61 13 -23 17 -35 75 -36 165 l0 72 -50 0 -50 0 0 -165z"/>
 <path d="M3075 2855 c-23 -22 -25 -31 -25 -125 l0 -100 -25 0 c-22 0 -25 -4 -25 -40 0 -36 3 -40 25 -40 23 0 25 -4 25 -45 l0 -45 50 0 50 0 0 45 0 45 55 0 55 0 0 40 0 40 -55 0 -55 0 0 58 c0 90 6 100 56 108 43 6 44 7 44 45 l0 39 -75 0 c-67 0 -79 -3 -100 -25z"/>
 <path d="M4430 2715 l0 -165 50 0 c39 0 50 4 50 16 0 13 5 12 26 -5 39 -31 117 -29 149 4 l25 24 26 -24 c21 -20 38 -25 76 -25 101 0 118 30 118 210 l0 130 -50 0 -50 0 0 -99 c0 -118 -10 -151 -43 -151 -45 0 -59 30 -64 144 l-6 106 -48 0 -49 0 -1 -77 c0 -43 -4 -98 -7 -123 -6 -39 -11 -45 -33 -48 -46 -5 -60 25 -66 142 l-6 106 -48 0 -49 0 0 -165z"/>
 <path d="M5525 2855 c-23 -22 -25 -31 -25 -125 l0 -100 -25 0 c-22 0 -25 -4 -25 -40 0 -36 3 -40 25 -40 23 0 25 -4 25 -45 l0 -45 50 0 50 0 0 45 0 45 55 0 55 0 0 40 0 40 -55 0 -55 0 0 58 c0 90 6 100 56 108 43 6 44 7 44 45 l0 39 -75 0 c-67 0 -79 -3 -100 -25z"/>
 <path d="M6610 2650 l0 -230 50 0 50 0 0 230 0 230 -50 0 -50 0 0 -230z"/>
 <path d="M7885 2855 c-23 -22 -25 -31 -25 -125 l0 -100 -25 0 c-22 0 -25 -4 -25 -40 0 -36 3 -40 25 -40 23 0 25 -4 25 -45 l0 -45 50 0 50 0 0 45 0 45 55 0 55 0 0 40 0 40 -55 0 -55 0 0 58 c0 90 6 100 56 108 43 6 44 7 44 45 l0 39 -75 0 c-67 0 -79 -3 -100 -25z"/>
 <path d="M9200 2715 l0 -165 50 0 c39 0 50 4 50 16 0 13 5 12 34 -5 21 -14 50 -21 80 -21 99 0 116 31 116 210 l0 130 -49 0 -48 0 -6 -111 c-3 -62 -11 -117 -18 -125 -6 -8 -24 -14 -40 -14 -46 0 -61 35 -67 151 l-5 99 -48 0 -49 0 0 -165z"/>
 <path d="M10400 2715 l0 -165 50 0 50 0 0 165 0 165 -50 0 -50 0 0 -165z"/>
 <path d="M10610 2650 l0 -230 50 0 50 0 0 230 0 230 -50 0 -50 0 0 -230z"/>
 <path d="M11040 2660 l0 -220 150 0 150 0 0 40 0 40 -95 0 -95 0 0 45 0 45 90 0 90 0 0 40 0 40 -90 0 -90 0 0 95 0 95 -55 0 -55 0 0 -220z"/>
 <path d="M11440 2715 l0 -165 50 0 50 0 0 165 0 165 -50 0 -50 0 0 -165z"/>
 <path d="M12770 2650 l0 -230 50 0 50 0 0 230 0 230 -50 0 -50 0 0 -230z"/>
 <path d="M3310 2705 l0 -45 90 0 90 0 0 45 0 45 -90 0 -90 0 0 -45z"/>
 <path d="M10400 2465 l0 -45 50 0 50 0 0 45 0 45 -50 0 -50 0 0 -45z"/>
 <path d="M11440 2465 l0 -45 50 0 50 0 0 45 0 45 -50 0 -50 0 0 -45z"/>
 <path d="M745 2204 c-16 -8 -37 -25 -46 -37 -20 -28 -582 -934 -599 -966 -7 -14 -11 -45 -8 -75 4 -47 30 -92 292 -516 159 -256 299 -480 313 -498 49 -65 18 -62 718 -62 349 0 635 3 635 6 0 3 -37 71 -82 150 l-83 144 -486 0 -487 0 -244 393 -244 393 242 390 241 389 477 5 476 5 84 148 85 147 -627 0 c-540 0 -631 -3 -657 -16z"/>
 <path d="M1975 1693 c-165 -290 -301 -533 -303 -540 -2 -7 137 -258 309 -558 l313 -545 558 0 557 0 34 29 c18 17 123 174 232 350 109 177 202 318 207 313 4 -4 88 -147 186 -317 l178 -310 601 -3 601 -2 192 332 c105 183 195 337 199 341 5 4 96 -144 203 -330 l194 -338 601 -3 601 -2 192 332 c105 183 195 337 199 341 5 4 96 -144 203 -330 l194 -338 601 -3 601 -2 192 332 c105 183 195 337 199 341 5 4 96 -144 203 -330 l194 -338 601 -3 601 -2 192 332 c105 183 195 337 199 341 5 4 96 -144 203 -330 l194 -338 601 -3 601 -2 302 522 c222 384 299 527 293 538 -5 8 -141 243 -303 523 l-293 507 -600 -2 -600 -3 -195 -339 c-160 -276 -198 -336 -207 -323 -6 9 -96 162 -199 341 l-189 326 -600 -2 -600 -3 -195 -339 c-160 -276 -198 -336 -207 -323 -6 9 -96 162 -199 341 l-189 326 -600 -2 -600 -3 -195 -339 c-160 -276 -198 -336 -207 -323 -6 9 -96 162 -199 341 l-189 326 -600 -2 -600 -3 -195 -339 c-160 -276 -198 -336 -207 -323 -6 9 -96 162 -199 341 l-189 326 -600 -2 -600 -3 -187 -325 c-104 -179 -191 -324 -195 -323 -4 1 -94 143 -200 315 -107 172 -201 323 -210 336 l-16 22 -582 0 -583 0 -299 -527z m2309 -33 c48 -18 56 -53 56 -239 l0 -170 501 -3 501 -3 19 -24 c13 -15 19 -39 19 -71 0 -32 -6 -56 -19 -71 l-19 -24 -501 -3 -501 -3 0 -109 0 -110 600 0 601 0 24 -25 c35 -34 35 -102 1 -142 l-24 -28 -654 -3 c-432 -2 -665 1 -689 7 -23 7 -40 20 -47 36 -18 39 -16 934 2 957 25 34 83 46 130 28z m2621 0 c53 -20 55 -41 55 -508 0 -288 -4 -439 -11 -461 -29 -84 -165 -79 -188 7 -15 51 -15 854 0 905 15 56 80 81 144 57z m2589 0 c50 -19 81 -103 56 -150 -10 -19 -30 -30 -290 -171 l-155 -84 130 -5 c117 -5 136 -8 188 -33 111 -55 162 -184 137 -344 -17 -103 -59 -168 -137 -207 -64 -32 -160 -37 -711 -34 l-544 3 -24 28 -24 28 0 460 0 460 25 24 c19 19 35 25 70 25 95 0 105 -23 105 -246 l0 -164 212 0 212 0 329 196 c270 161 373 219 394 224 1 0 13 -4 27 -10z m2750 0 c53 -20 56 -40 56 -396 0 -257 3 -325 13 -321 6 2 174 111 372 242 198 131 438 290 534 353 96 63 190 119 208 124 45 12 97 -5 112 -38 8 -18 11 -159 11 -479 l0 -454 -24 -28 c-21 -24 -32 -28 -76 -28 -44 0 -55 4 -76 28 l-24 28 0 335 c0 184 -2 334 -5 334 -5 0 -807 -519 -1017 -657 -81 -54 -104 -65 -143 -66 -38 -2 -50 2 -66 22 -18 22 -19 45 -19 490 1 368 3 470 14 483 25 34 83 46 130 28z m-8909 -15 c99 -26 128 -48 189 -147 71 -114 80 -166 73 -403 -6 -191 -13 -223 -68 -309 -42 -66 -78 -95 -160 -129 -53 -22 -64 -22 -499 -22 -440 0 -446 0 -501 23 -72 29 -143 91 -173 151 -41 81 -48 140 -44 366 4 191 6 215 27 269 27 69 88 139 146 169 81 42 121 45 545 46 334 1 416 -2 465 -14z m8200 -10 c35 -34 35 -102 1 -142 l-24 -28 -601 -3 -601 -2 0 -110 0 -110 499 0 500 0 20 -26 c30 -38 28 -104 -3 -141 l-24 -28 -496 -3 -496 -3 0 -104 0 -105 590 0 c410 0 596 -3 613 -11 52 -24 65 -122 22 -164 l-24 -25 -676 0 -676 0 -24 25 -25 24 0 466 0 466 25 24 24 25 676 0 676 0 24 -25z"/>
 <path d="M8320 945 l0 -105 493 0 c549 0 526 -3 548 69 9 29 9 47 -1 75 -22 69 -1 66 -547 66 l-493 0 0 -105z"/>
 <path d="M2455 1441 c-48 -22 -69 -44 -90 -94 -20 -49 -22 -361 -1 -410 20 -49 78 -95 128 -102 24 -3 210 -5 414 -3 l371 3 36 25 c20 13 46 43 59 65 22 38 23 50 23 220 0 174 -1 182 -25 224 -17 30 -40 52 -69 68 -44 23 -46 23 -425 23 -348 0 -384 -2 -421 -19z"/>
 </g>

</svg>