<!DOCTYPE svg PUBLIC "-//W3C//DTD SVG 20010904//EN" "http://www.w3.org/TR/2001/REC-SVG-20010904/DTD/svg10.dtd">
<svg version="1.0" xmlns="http://www.w3.org/2000/svg" width="622px" height="685px" viewBox="0 0 6220 6850" preserveAspectRatio="xMidYMid meet">
<g id="layer101" fill="#002060" stroke="none">
 <path d="M2353 6840 l-262 -5 -1042 -1690 c-574 -929 -1043 -1700 -1043 -1712 -1 -12 454 -767 1039 -1727 l1040 -1705 2068 0 c1137 -1 2067 2 2067 5 0 4 -124 222 -276 485 l-277 479 -1206 1 c-663 1 -1352 5 -1529 8 l-324 6 -759 1219 c-418 671 -758 1225 -757 1231 2 7 345 557 763 1224 l760 1211 475 1 c261 1 929 5 1485 8 l1009 6 66 115 c37 63 161 280 278 483 l211 367 -1762 -2 c-969 -1 -1880 -5 -2024 -8z"/>
 </g>

</svg>