<!DOCTYPE svg PUBLIC "-//W3C//DTD SVG 20010904//EN" "http://www.w3.org/TR/2001/REC-SVG-20010904/DTD/svg10.dtd">
<svg version="1.0" xmlns="http://www.w3.org/2000/svg" width="412px" height="337px" viewBox="0 0 4120 3370" preserveAspectRatio="xMidYMid meet">
<g id="layer101" fill="#002060" stroke="none">
 <path d="M924 3363 l-51 -4 -436 -818 c-240 -449 -437 -823 -437 -831 0 -7 197 -395 437 -862 l437 -848 1171 0 1171 0 452 833 c249 458 452 840 452 847 0 7 -201 391 -447 852 l-447 838 -1125 -2 c-620 -1 -1149 -3 -1177 -5z"/>
 </g>
<g id="layer102" fill="#bdc7d5" stroke="none">
 <path d="M514 1940 c-11 -4 -33 -22 -47 -40 -75 -89 -56 -299 32 -357 28 -18 98 -20 130 -4 23 13 25 19 12 40 -8 12 -14 12 -40 1 -39 -16 -82 0 -107 38 -25 38 -31 165 -11 214 26 62 62 76 147 56 9 -2 16 6 18 18 5 35 -79 56 -134 34z"/>
 <path d="M771 1938 c-39 -21 -61 -60 -73 -130 -15 -83 0 -193 31 -237 48 -68 145 -56 185 23 44 86 28 272 -27 324 -30 28 -84 37 -116 20z m88 -59 c40 -43 43 -225 5 -276 -28 -37 -70 -38 -97 -1 -40 54 -34 240 10 283 21 21 59 18 82 -6z"/>
 <path d="M981 1795 c4 -79 10 -172 14 -205 6 -55 9 -61 28 -58 18 2 25 19 46 96 13 51 27 89 31 85 4 -4 17 -48 30 -96 20 -78 26 -88 44 -85 25 4 29 35 40 266 l7 142 -25 0 -26 0 -2 -162 -3 -163 -24 88 c-21 77 -27 88 -44 85 -16 -2 -25 -18 -40 -75 -11 -40 -24 -73 -29 -73 -4 0 -8 68 -8 150 0 149 0 150 -22 150 l-23 0 6 -145z"/>
 <path d="M1280 1740 l0 -200 26 -6 c14 -4 48 -4 76 -2 42 4 57 11 80 37 24 27 28 40 28 89 0 37 -6 66 -16 81 -20 28 -72 51 -114 51 l-30 0 0 75 c0 73 -1 75 -25 75 l-25 0 0 -200z m137 -15 c27 -19 37 -63 23 -101 -14 -36 -26 -44 -72 -44 l-38 0 0 80 0 80 33 0 c18 0 42 -7 54 -15z"/>
 <path d="M1640 1760 l0 -180 -50 0 c-47 0 -50 -2 -50 -25 l0 -25 120 0 120 0 0 25 c0 23 -3 25 -50 25 l-50 0 0 180 c0 173 -1 180 -20 180 -19 0 -20 -7 -20 -180z"/>
 <path d="M1810 1928 c0 -20 66 -275 87 -338 14 -44 23 -56 42 -58 13 -2 27 0 32 5 5 5 31 97 58 204 48 187 49 194 30 197 -27 5 -28 3 -42 -54 l-12 -49 -65 0 -65 0 -10 50 c-9 40 -15 51 -33 53 -13 2 -22 -2 -22 -10z m164 -230 c-24 -90 -30 -106 -38 -97 -5 6 -46 163 -46 177 0 8 19 12 54 12 l55 0 -25 -92z"/>
 <path d="M2118 1934 c-5 -4 -8 -94 -8 -200 0 -166 2 -193 16 -198 29 -11 115 -6 143 8 54 28 67 105 26 154 -24 29 -25 31 -6 37 10 3 26 21 35 40 21 43 13 96 -19 133 -21 24 -31 27 -102 30 -43 2 -81 0 -85 -4z m154 -64 c42 -52 1 -120 -72 -120 l-40 0 0 76 0 77 47 -6 c32 -3 53 -12 65 -27z m-37 -174 c30 -13 35 -20 35 -50 0 -45 -22 -66 -71 -66 l-39 0 0 65 c0 73 8 79 75 51z"/>
 <path d="M2412 1918 c2 -18 11 -24 36 -26 l32 -3 0 -155 0 -154 -36 0 c-31 0 -35 -3 -32 -22 3 -22 7 -23 93 -23 86 0 90 1 93 23 3 19 -1 22 -32 22 l-36 0 0 154 0 155 33 3 c24 2 33 8 35 26 3 21 1 22 -93 22 -94 0 -96 -1 -93 -22z"/>
 <path d="M2700 1735 c0 -198 1 -205 20 -205 19 0 20 7 20 180 l0 180 80 0 c79 0 80 0 80 25 l0 25 -100 0 -100 0 0 -205z"/>
 <path d="M2980 1915 c0 -21 5 -25 30 -25 l30 0 0 -155 0 -155 -30 0 c-25 0 -30 -4 -30 -25 0 -25 1 -25 90 -25 89 0 90 0 90 25 0 22 -4 25 -35 25 l-35 0 0 155 0 155 35 0 c31 0 35 3 35 25 0 25 -1 25 -90 25 -89 0 -90 0 -90 -25z"/>
 <path d="M3330 1760 l0 -180 -50 0 c-47 0 -50 -2 -50 -25 l0 -25 120 0 120 0 0 25 c0 23 -3 25 -50 25 l-50 0 0 180 c0 173 -1 180 -20 180 -19 0 -20 -7 -20 -180z"/>
 <path d="M3540 1735 l0 -206 98 3 c92 3 97 4 100 26 3 21 0 22 -72 22 l-76 0 0 60 0 60 65 0 c63 0 65 1 65 25 0 24 -2 25 -65 25 l-65 0 0 70 0 70 80 0 c79 0 80 0 80 25 l0 25 -105 0 -105 0 0 -205z"/>
 <path d="M3613 1499 c-9 -9 -4 -23 19 -56 27 -40 32 -43 46 -30 13 14 11 20 -17 56 -37 47 -34 44 -48 30z"/>
 </g>
<g id="layer103" fill="#eaeef0" stroke="none">
 <path d="M512 1939 c-83 -31 -118 -235 -58 -340 19 -33 37 -50 65 -61 61 -24 121 -7 121 34 0 17 -4 19 -22 13 -13 -4 -38 -8 -57 -9 -74 -2 -119 126 -84 239 22 71 33 80 106 81 48 1 63 4 65 17 2 9 -6 18 -19 22 -29 10 -96 11 -117 4z"/>
 <path d="M738 1908 c-31 -45 -44 -100 -42 -184 2 -64 23 -141 47 -171 17 -23 77 -33 106 -19 68 36 89 88 86 216 -4 141 -35 190 -121 190 -48 0 -55 -3 -76 -32z m137 -50 c25 -42 26 -190 1 -241 -19 -41 -54 -56 -91 -39 -46 21 -65 210 -28 279 32 60 83 60 118 1z"/>
 <path d="M975 1928 c2 -7 7 -74 10 -148 4 -74 8 -148 10 -165 2 -16 4 -42 4 -57 1 -44 35 -37 49 10 6 20 19 63 28 96 22 73 33 62 58 -54 15 -73 19 -81 38 -78 14 2 22 11 24 28 6 50 15 207 18 293 3 86 3 87 -22 87 l-24 0 3 -107 c2 -60 2 -137 0 -173 -3 -71 -3 -71 -36 63 -13 50 -21 67 -34 67 -17 0 -22 -10 -51 -107 -7 -24 -17 -43 -22 -43 -4 0 -8 68 -8 150 l0 150 -25 0 c-15 0 -23 -5 -20 -12z"/>
 <path d="M1280 1741 c0 -150 3 -200 13 -203 6 -3 41 -4 75 -3 82 3 110 27 118 101 11 92 -34 146 -124 148 l-35 1 2 78 c2 77 2 77 -23 77 l-26 0 0 -199z m153 -22 c19 -24 22 -55 7 -95 -14 -37 -36 -51 -77 -49 l-34 1 -2 86 -2 87 45 -4 c30 -3 51 -12 63 -26z"/>
 <path d="M1640 1760 l0 -180 -46 0 c-41 0 -45 -2 -42 -22 3 -22 7 -23 116 -26 113 -3 113 -3 110 20 -3 20 -10 23 -50 26 l-48 3 0 180 c0 172 -1 179 -20 179 -19 0 -20 -7 -20 -180z"/>
 <path d="M1816 1908 c8 -40 32 -142 44 -183 12 -42 30 -105 39 -141 12 -45 19 -54 45 -54 25 0 37 29 87 225 16 66 34 135 39 153 7 29 6 32 -15 32 -20 0 -24 -7 -30 -42 -10 -61 -19 -68 -86 -68 -65 0 -71 6 -83 73 -5 28 -12 37 -26 37 -17 0 -19 -5 -14 -32z m179 -150 c-4 -18 -13 -51 -20 -73 -7 -22 -16 -55 -20 -73 -8 -38 -21 -34 -30 11 -4 17 -13 50 -20 72 -7 22 -15 52 -19 68 l-6 27 61 0 61 0 -7 -32z"/>
 <path d="M2128 1934 c-16 -5 -18 -23 -18 -200 0 -107 3 -195 8 -195 46 -7 132 -2 154 9 50 24 58 112 16 159 -20 21 -20 21 0 27 11 4 28 23 37 43 14 29 15 42 6 73 -18 59 -50 82 -123 86 -35 1 -71 1 -80 -2z m136 -47 c11 -8 20 -31 23 -59 5 -44 4 -47 -25 -62 -17 -9 -47 -16 -67 -16 l-35 0 0 75 0 75 43 0 c24 0 51 -6 61 -13z m-18 -195 c35 -28 38 -65 7 -96 -15 -15 -33 -24 -41 -21 -7 3 -22 5 -33 5 -17 0 -19 8 -19 65 l0 65 33 0 c17 0 42 -8 53 -18z"/>
 <path d="M2412 1918 c2 -19 10 -23 38 -24 l35 0 3 -157 3 -157 -41 0 c-37 0 -41 -2 -38 -22 3 -22 7 -23 93 -23 86 0 90 1 93 23 3 20 -1 22 -38 22 l-41 0 3 157 3 157 35 0 c28 1 36 5 38 24 3 21 1 22 -93 22 -94 0 -96 -1 -93 -22z"/>
 <path d="M2700 1735 c0 -198 1 -205 20 -205 19 0 20 7 20 180 l0 180 80 0 c79 0 80 0 80 25 l0 25 -100 0 -100 0 0 -205z"/>
 <path d="M2980 1914 c0 -25 2 -26 36 -21 29 5 35 3 30 -9 -3 -9 -6 -81 -6 -160 l0 -144 -30 0 c-25 0 -30 -4 -30 -25 0 -26 0 -26 83 -23 76 3 82 5 85 26 3 19 -1 22 -27 22 l-31 0 0 154 0 155 28 3 c19 2 28 9 30 26 3 21 1 22 -82 22 l-86 0 0 -26z"/>
 <path d="M3330 1761 l0 -180 -47 -3 c-41 -3 -48 -6 -51 -26 -3 -23 -3 -23 110 -20 109 3 113 4 116 26 3 20 -1 22 -42 22 l-46 0 0 180 c0 173 -1 180 -20 180 -19 0 -20 -7 -20 -179z"/>
 <path d="M3552 1738 l3 -203 90 0 c86 0 90 1 93 23 3 21 1 22 -77 22 l-81 0 0 63 0 62 63 0 c57 0 62 2 65 23 3 21 0 22 -63 22 l-66 0 3 72 3 71 83 -2 c82 -2 82 -2 82 23 l0 26 -100 0 -100 0 2 -202z"/>
 <path d="M3617 1493 c-11 -11 -8 -19 22 -57 24 -30 31 -34 41 -21 9 11 6 21 -15 50 -28 35 -36 40 -48 28z"/>
 </g>

</svg>