<!DOCTYPE svg PUBLIC "-//W3C//DTD SVG 20010904//EN" "http://www.w3.org/TR/2001/REC-SVG-20010904/DTD/svg10.dtd">
<svg version="1.0" xmlns="http://www.w3.org/2000/svg" width="412px" height="337px" viewBox="0 0 4120 3370" preserveAspectRatio="xMidYMid meet">
<g id="layer101" fill="#002060" stroke="none">
 <path d="M924 3363 l-51 -4 -436 -818 c-240 -449 -437 -823 -437 -831 0 -7 197 -395 437 -862 l437 -848 1171 0 1171 0 452 833 c249 458 452 840 452 847 0 7 -201 391 -447 852 l-447 838 -1125 -2 c-620 -1 -1149 -3 -1177 -5z"/>
 </g>
<g id="layer102" fill="#bbc5d3" stroke="none">
 <path d="M2863 1896 c-34 -16 -38 -22 -25 -44 7 -10 15 -10 36 -2 67 25 126 2 126 -49 0 -37 -18 -60 -69 -86 -66 -33 -91 -67 -91 -121 0 -61 40 -106 96 -107 67 -2 94 10 94 39 0 23 -3 25 -22 19 -53 -16 -71 -17 -93 -5 -54 29 -38 86 37 129 80 45 93 63 93 127 0 44 -4 58 -25 79 -33 32 -110 42 -157 21z"/>
 <path d="M880 1695 l0 -205 95 0 c95 0 95 0 95 25 0 24 -2 25 -70 25 l-70 0 0 60 0 59 63 3 c56 3 62 5 65 26 3 21 0 22 -62 22 l-66 0 0 70 0 69 78 3 c71 3 77 5 80 26 3 22 2 22 -102 22 l-106 0 0 -205z"/>
 <path d="M1130 1888 c0 -7 20 -57 44 -110 l44 -96 -44 -92 c-24 -51 -44 -94 -44 -96 0 -2 11 -4 25 -4 17 0 28 7 34 23 5 12 20 47 34 77 l25 55 37 -77 c31 -65 41 -78 61 -78 13 0 24 2 24 5 0 3 -20 45 -45 94 l-44 89 44 99 c25 54 45 104 45 111 0 6 -10 12 -22 12 -19 0 -28 -13 -51 -68 -47 -118 -49 -118 -88 -19 -29 73 -38 87 -56 87 -13 0 -23 -6 -23 -12z"/>
 <path d="M1430 1701 c0 -224 -5 -211 82 -211 57 0 100 21 120 58 18 35 15 114 -6 147 -20 31 -71 55 -116 55 l-30 0 0 75 c0 73 -1 75 -25 75 l-25 0 0 -199z m150 -28 c17 -22 21 -37 17 -66 -7 -53 -22 -67 -73 -67 l-44 0 0 80 0 80 39 0 c31 0 44 -6 61 -27z"/>
 <path d="M1722 1698 l3 -203 98 -3 97 -3 0 26 c0 25 -1 25 -75 25 l-75 0 0 60 0 60 65 0 c63 0 65 1 65 25 0 24 -2 25 -65 25 l-65 0 0 70 0 70 80 0 c79 0 80 0 80 25 l0 25 -105 0 -105 0 2 -202z"/>
 <path d="M1980 1701 c0 -224 -5 -211 81 -211 82 0 119 29 134 106 7 36 -8 80 -37 111 l-21 23 36 78 c21 43 37 81 37 85 0 4 -11 7 -24 7 -19 0 -27 -10 -45 -57 -32 -85 -47 -103 -81 -103 l-30 0 0 80 c0 79 0 80 -25 80 l-25 0 0 -199z m156 -36 c11 -17 15 -37 11 -61 -9 -51 -23 -64 -73 -64 l-44 0 0 75 0 75 45 0 c37 0 47 -4 61 -25z"/>
 <path d="M2350 1720 l0 -180 -45 0 c-41 0 -45 -2 -45 -25 l0 -25 115 0 115 0 0 25 c0 23 -4 25 -45 25 l-45 0 0 180 0 180 -25 0 -25 0 0 -180z"/>
 <path d="M2570 1875 c0 -21 5 -25 30 -25 l30 0 0 -155 0 -155 -30 0 c-25 0 -30 -4 -30 -25 0 -25 1 -25 90 -25 89 0 90 0 90 25 0 22 -4 25 -35 25 l-35 0 0 155 0 155 35 0 c31 0 35 3 35 25 0 25 -1 25 -90 25 -89 0 -90 0 -90 -25z"/>
 <path d="M3130 1695 l0 -206 98 3 c92 3 97 4 100 26 3 21 0 22 -72 22 l-76 0 0 60 0 60 65 0 c63 0 65 1 65 25 0 24 -2 25 -65 25 l-65 0 0 70 0 70 80 0 c79 0 80 0 80 25 l0 25 -105 0 -105 0 0 -205z"/>
 </g>
<g id="layer103" fill="#e9eeef" stroke="none">
 <path d="M2861 1892 c-33 -17 -33 -16 -25 -35 4 -12 11 -14 23 -8 17 10 61 15 99 13 15 -1 28 -13 38 -36 15 -31 15 -35 -1 -60 -10 -15 -35 -36 -55 -46 -20 -10 -51 -32 -68 -48 -44 -41 -45 -102 -4 -152 26 -31 33 -34 81 -33 58 1 86 18 75 47 -4 11 -12 15 -23 10 -9 -4 -31 -9 -49 -12 -75 -10 -101 83 -34 121 113 65 129 85 124 159 -3 39 -8 51 -32 68 -35 25 -112 31 -149 12z"/>
 <path d="M880 1695 l0 -205 95 0 c95 0 95 0 95 25 0 24 -2 25 -70 25 l-70 0 0 49 c0 27 -2 55 -5 63 -4 10 10 13 62 13 63 0 68 2 71 23 3 21 0 22 -62 22 l-66 0 0 59 c0 33 -2 65 -5 73 -4 10 13 13 77 13 78 0 83 1 86 23 3 22 2 22 -102 22 l-106 0 0 -205z"/>
 <path d="M1130 1890 c0 -6 4 -18 9 -28 5 -9 13 -28 19 -42 6 -14 21 -50 35 -81 24 -55 24 -56 7 -100 -9 -24 -29 -64 -43 -89 -33 -56 -33 -60 -2 -60 16 0 28 7 31 18 3 9 12 31 19 47 7 17 18 43 25 60 14 36 20 30 65 -64 23 -46 35 -60 53 -60 12 -1 22 2 22 7 0 4 -21 45 -46 91 l-45 85 27 60 c14 34 35 79 45 102 25 53 24 64 -6 64 -14 0 -25 -6 -25 -13 0 -7 -9 -32 -20 -55 -11 -22 -20 -47 -20 -54 0 -7 -9 -24 -19 -37 l-18 -23 -12 33 c-7 19 -19 48 -26 64 -8 17 -17 42 -21 58 -5 20 -12 27 -30 27 -13 0 -24 -5 -24 -10z"/>
 <path d="M1442 1698 l3 -203 61 0 c78 0 108 16 129 71 19 50 14 93 -17 136 -20 29 -50 41 -108 42 l-35 1 -3 78 c-2 60 -6 77 -18 77 -12 0 -14 -29 -12 -202z m97 6 c37 -8 61 -46 61 -98 0 -45 -34 -73 -87 -72 l-38 2 -3 73 c-4 105 -2 109 67 95z"/>
 <path d="M1722 1698 l3 -203 90 0 c86 0 90 1 93 23 3 21 0 22 -67 22 l-71 0 0 60 0 60 65 0 c63 0 65 1 65 25 0 24 -2 25 -65 25 l-65 0 0 70 0 70 80 0 c79 0 80 0 80 25 l0 25 -105 0 -105 0 2 -202z"/>
 <path d="M1980 1700 c0 -110 3 -200 8 -201 4 0 31 -3 61 -5 88 -8 130 22 146 103 7 35 -23 105 -52 121 -14 9 -12 16 19 73 48 89 52 109 22 109 -13 0 -24 -6 -24 -13 0 -7 -15 -42 -32 -77 -29 -58 -37 -65 -65 -68 l-33 -3 0 80 c0 80 0 81 -25 81 l-25 0 0 -200z m145 -25 c18 -17 25 -35 25 -63 0 -49 -26 -74 -80 -77 l-40 -2 0 78 c0 77 0 78 28 82 15 2 31 5 35 6 4 0 19 -10 32 -24z"/>
 <path d="M2350 1720 l0 -180 -45 0 c-41 0 -45 -2 -45 -25 l0 -25 115 0 115 0 0 25 c0 23 -4 25 -45 25 l-45 0 0 180 0 180 -25 0 -25 0 0 -180z"/>
 <path d="M2570 1874 c0 -25 2 -26 36 -21 29 5 35 3 30 -9 -3 -9 -6 -81 -6 -160 l0 -144 -30 0 c-25 0 -30 -4 -30 -25 0 -26 0 -26 83 -23 76 3 82 5 85 26 3 19 -1 22 -27 22 l-31 0 0 154 0 155 28 3 c19 2 28 9 30 26 3 21 1 22 -82 22 l-86 0 0 -26z"/>
 <path d="M3130 1695 l0 -206 98 3 c92 3 97 4 100 26 3 21 0 22 -72 22 l-76 0 0 49 c0 27 -2 55 -5 63 -4 10 9 13 57 13 58 0 63 2 66 23 3 21 0 22 -57 22 l-61 0 0 59 c0 33 -2 65 -5 73 -4 10 12 13 72 13 73 0 78 1 81 23 3 22 1 22 -97 22 l-101 0 0 -205z"/>
 </g>

</svg>