<!DOCTYPE svg PUBLIC "-//W3C//DTD SVG 20010904//EN" "http://www.w3.org/TR/2001/REC-SVG-20010904/DTD/svg10.dtd">
<svg version="1.0" xmlns="http://www.w3.org/2000/svg" width="412px" height="337px" viewBox="0 0 4120 3370" preserveAspectRatio="xMidYMid meet">
<g id="layer101" fill="#002060" stroke="none">
 <path d="M924 3363 l-51 -4 -436 -818 c-240 -449 -437 -823 -437 -831 0 -7 197 -395 437 -862 l437 -848 1171 0 1171 0 452 833 c249 458 452 840 452 847 0 7 -201 391 -447 852 l-447 838 -1125 -2 c-620 -1 -1149 -3 -1177 -5z"/>
 </g>
<g id="layer102" fill="#eaeef0" stroke="none">
 <path d="M1460 1897 c-26 -9 -34 -17 -32 -32 5 -27 5 -27 36 -15 37 14 89 13 110 -3 13 -9 17 -23 14 -52 -3 -36 -8 -43 -53 -71 -95 -60 -116 -94 -99 -162 12 -48 52 -75 107 -75 59 1 87 16 80 43 -4 15 -11 19 -22 15 -73 -29 -121 -8 -121 52 0 29 6 37 47 61 26 15 62 41 80 59 28 26 33 38 33 77 0 89 -85 138 -180 103z"/>
 <path d="M1794 1900 c-31 -12 -72 -65 -84 -108 -14 -50 -13 -146 2 -195 15 -50 65 -102 107 -110 46 -9 107 13 103 38 -5 28 -6 28 -47 14 -76 -28 -125 36 -125 161 0 120 47 176 130 153 32 -8 40 -7 45 4 10 26 5 32 -32 42 -44 13 -70 13 -99 1z"/>
 <path d="M880 1695 l0 -206 98 3 c92 3 97 4 100 26 3 21 0 22 -72 22 l-76 0 0 65 0 65 65 0 c58 0 65 2 65 20 0 18 -7 20 -65 20 l-65 0 0 95 c0 95 0 95 -25 95 l-25 0 0 -205z"/>
 <path d="M1160 1875 c0 -22 4 -25 35 -25 l35 0 0 -155 0 -155 -35 0 c-31 0 -35 -3 -35 -25 0 -25 1 -25 90 -25 89 0 90 0 90 25 0 22 -4 25 -35 25 l-35 0 0 155 0 155 35 0 c31 0 35 3 35 25 0 25 -1 25 -90 25 -89 0 -90 0 -90 -25z"/>
 <path d="M1960 1893 c0 -15 79 -319 93 -358 11 -31 20 -41 40 -43 33 -4 36 2 87 203 57 224 54 205 26 205 -22 0 -26 -6 -36 -55 l-12 -56 -66 3 -67 3 -9 53 c-8 45 -12 52 -32 52 -13 0 -24 -3 -24 -7z m186 -160 c-2 -10 -15 -55 -27 -101 -12 -46 -23 -81 -26 -78 -5 4 -53 176 -53 188 0 5 25 8 56 8 48 0 55 -2 50 -17z"/>
 <path d="M2290 1695 c0 -198 1 -205 20 -205 19 0 20 7 20 180 l0 180 80 0 c79 0 80 0 80 25 l0 25 -100 0 -100 0 0 -205z"/>
 <path d="M2570 1875 c0 -21 5 -25 30 -25 l30 0 0 -155 0 -155 -30 0 c-25 0 -30 -4 -30 -25 0 -25 1 -25 90 -25 89 0 90 0 90 25 0 22 -4 25 -35 25 l-35 0 0 154 0 155 33 3 c24 2 33 8 35 26 3 21 1 22 -87 22 -90 0 -91 0 -91 -25z"/>
 <path d="M2920 1720 l0 -180 -50 0 c-47 0 -50 -2 -50 -25 l0 -25 120 0 120 0 0 25 c0 23 -3 25 -50 25 l-50 0 0 180 c0 173 -1 180 -20 180 -19 0 -20 -7 -20 -180z"/>
 <path d="M3130 1695 l0 -206 98 3 c92 3 97 4 100 26 3 21 0 22 -72 22 l-76 0 0 60 0 59 63 3 c56 3 62 5 65 26 3 21 0 22 -62 22 l-66 0 0 70 0 70 80 0 c79 0 80 0 80 25 l0 25 -105 0 -105 0 0 -205z"/>
 <path d="M3201 1457 c-8 -10 -3 -24 21 -56 27 -38 33 -41 46 -28 13 13 11 20 -18 56 -19 23 -34 41 -35 41 -2 0 -8 -6 -14 -13z"/>
 </g>

</svg>