<!DOCTYPE svg PUBLIC "-//W3C//DTD SVG 20010904//EN" "http://www.w3.org/TR/2001/REC-SVG-20010904/DTD/svg10.dtd">
<svg version="1.0" xmlns="http://www.w3.org/2000/svg" width="412px" height="337px" viewBox="0 0 4120 3370" preserveAspectRatio="xMidYMid meet">
<g id="layer101" fill="#002060" stroke="none">
 <path d="M924 3363 l-51 -4 -436 -818 c-240 -449 -437 -823 -437 -831 0 -7 197 -395 437 -862 l437 -848 1171 0 1171 0 452 833 c249 458 452 840 452 847 0 7 -201 391 -447 852 l-447 838 -1125 -2 c-620 -1 -1149 -3 -1177 -5z"/>
 </g>
<g id="layer102" fill="#bdc6d4" stroke="none">
 <path d="M1204 1936 c-55 -24 -78 -77 -82 -186 -3 -84 -1 -100 20 -139 32 -61 66 -84 124 -83 51 0 81 20 70 47 -4 12 -12 15 -24 10 -71 -31 -121 3 -142 96 -25 112 21 219 95 219 l35 0 0 -80 c0 -79 0 -80 25 -80 25 0 25 0 25 94 l0 94 -31 11 c-42 14 -77 13 -115 -3z"/>
 <path d="M1723 1939 c-26 -8 -33 -15 -33 -35 0 -23 3 -25 23 -19 12 4 41 10 64 12 32 4 45 1 62 -16 12 -12 21 -30 21 -40 0 -21 -46 -81 -61 -81 -28 0 -88 -52 -99 -86 -16 -47 1 -107 36 -131 40 -26 154 -15 154 15 -1 25 -17 30 -57 19 -54 -14 -93 8 -93 53 0 33 17 52 69 80 72 39 91 66 91 130 0 54 -14 79 -55 96 -39 16 -75 17 -122 3z"/>
 <path d="M2588 1934 c-56 -30 -86 -146 -67 -263 16 -105 52 -146 127 -144 45 1 86 43 103 105 16 60 7 204 -15 251 -30 61 -91 82 -148 51z m82 -44 c36 -19 56 -130 41 -216 -14 -76 -47 -113 -88 -98 -15 5 -34 22 -42 38 -32 67 -22 226 16 269 18 19 45 22 73 7z"/>
 <path d="M1422 1738 l3 -203 98 -3 97 -3 0 26 c0 25 -1 25 -75 25 l-75 0 0 60 0 60 65 0 c63 0 65 1 65 25 0 24 -2 25 -65 25 l-65 0 0 70 0 70 80 0 c79 0 80 0 80 25 l0 25 -105 0 -105 0 2 -202z"/>
 <path d="M2050 1760 l0 -180 -45 0 c-41 0 -45 -2 -45 -25 l0 -25 115 0 115 0 0 25 c0 23 -4 25 -45 25 l-45 0 0 180 0 180 -25 0 -25 0 0 -180z"/>
 <path d="M2270 1915 c0 -21 5 -25 30 -25 l30 0 0 -155 0 -155 -30 0 c-25 0 -30 -4 -30 -25 l0 -26 88 3 c82 3 87 4 90 26 3 19 -1 22 -32 22 l-36 0 0 154 0 155 33 3 c24 2 33 8 35 26 3 21 1 22 -87 22 -90 0 -91 0 -91 -25z"/>
 <path d="M2810 1735 l0 -205 24 0 c19 0 29 14 63 88 22 48 51 116 64 152 l24 65 3 -152 c2 -145 4 -153 22 -153 19 0 20 8 20 205 l0 205 -24 0 c-21 0 -28 -10 -51 -72 -42 -112 -85 -212 -96 -223 -5 -5 -9 48 -9 143 0 145 -1 152 -20 152 -19 0 -20 -7 -20 -205z"/>
 </g>
<g id="layer103" fill="#eaeeef" stroke="none">
 <path d="M1235 1939 c-60 -10 -87 -38 -103 -110 -15 -62 -16 -176 -2 -184 6 -3 10 -14 10 -24 0 -9 18 -34 39 -55 29 -28 47 -38 72 -38 44 -1 89 18 89 36 0 22 -16 28 -44 15 -39 -18 -85 -1 -110 41 -28 48 -30 192 -3 234 21 31 70 56 98 49 17 -5 19 -16 19 -84 0 -78 0 -79 25 -79 25 0 25 0 25 94 l0 94 -31 11 c-18 6 -32 10 -33 10 -1 -1 -23 -5 -51 -10z"/>
 <path d="M1720 1937 c-30 -8 -37 -21 -22 -45 7 -10 16 -9 46 3 76 32 143 -27 102 -90 -15 -22 -53 -50 -110 -81 -25 -13 -50 -78 -42 -109 4 -14 19 -39 34 -56 23 -26 36 -32 68 -32 60 0 84 11 84 37 0 22 -2 23 -42 14 -63 -14 -98 2 -98 45 0 34 23 77 42 77 21 0 95 55 106 79 23 48 10 125 -24 147 -25 17 -99 23 -144 11z"/>
 <path d="M2628 1942 c-29 -2 -44 -12 -66 -38 -71 -86 -57 -324 22 -363 43 -20 62 -20 100 2 58 33 79 95 73 214 -8 142 -43 192 -129 185z m68 -80 c21 -33 27 -163 11 -220 -18 -59 -37 -76 -80 -68 -30 6 -37 13 -52 53 -14 37 -17 64 -12 134 3 48 11 97 17 109 25 46 83 42 116 -8z"/>
 <path d="M1422 1738 l3 -203 90 0 c86 0 90 1 93 23 3 21 0 22 -73 22 l-76 0 3 62 3 62 68 -3 c66 -2 67 -2 67 23 0 24 -3 25 -67 28 l-68 3 0 69 0 69 83 -2 c82 -2 82 -2 82 23 l0 26 -105 0 -105 0 2 -202z"/>
 <path d="M2060 1760 l0 -180 -50 0 c-47 0 -50 -2 -50 -25 l0 -25 115 0 115 0 0 25 c0 23 -3 25 -50 25 l-50 0 0 180 c0 153 -2 180 -15 180 -13 0 -15 -27 -15 -180z"/>
 <path d="M2270 1914 c0 -25 2 -26 36 -21 29 5 35 3 30 -9 -3 -9 -6 -81 -6 -160 l0 -144 -30 0 c-25 0 -30 -4 -30 -25 l0 -26 88 3 c82 3 87 4 90 26 3 19 -1 22 -32 22 l-36 0 0 154 0 155 33 3 c24 2 33 8 35 26 3 21 1 22 -87 22 l-91 0 0 -26z"/>
 <path d="M2810 1735 l0 -205 23 0 c25 0 29 6 105 190 6 14 14 36 18 50 4 14 13 34 20 45 12 17 14 -1 14 -133 0 -145 1 -152 20 -152 19 0 20 7 20 205 l0 205 -25 0 c-20 0 -26 -7 -35 -41 -6 -23 -15 -49 -20 -58 -18 -35 -50 -111 -50 -120 0 -5 -7 -22 -14 -38 -8 -15 -19 -37 -23 -48 -5 -12 -9 48 -11 143 -2 154 -4 162 -22 162 -19 0 -20 -8 -20 -205z"/>
 </g>

</svg>