<!DOCTYPE svg PUBLIC "-//W3C//DTD SVG 20010904//EN" "http://www.w3.org/TR/2001/REC-SVG-20010904/DTD/svg10.dtd">
<svg version="1.0" xmlns="http://www.w3.org/2000/svg" width="412px" height="337px" viewBox="0 0 4120 3370" preserveAspectRatio="xMidYMid meet">
<g id="layer101" fill="#002060" stroke="none">
 <path d="M924 3363 l-51 -4 -436 -818 c-240 -449 -437 -823 -437 -831 0 -7 197 -395 437 -862 l437 -848 1171 0 1171 0 452 833 c249 458 452 840 452 847 0 7 -201 391 -447 852 l-447 838 -1125 -2 c-620 -1 -1149 -3 -1177 -5z"/>
 </g>
<g id="layer102" fill="#bbc4d3" stroke="none">
 <path d="M2717 2015 c-47 -16 -62 -29 -77 -65 -7 -17 -18 -30 -25 -30 -49 0 -94 -140 -80 -248 14 -113 51 -162 123 -162 81 0 122 68 122 203 0 103 -16 152 -62 191 -36 31 -38 35 -22 50 9 9 29 20 45 23 30 6 32 8 21 35 -6 14 -11 15 -45 3z m-18 -154 c26 -26 34 -72 30 -175 -4 -77 -7 -88 -31 -112 -53 -54 -105 -6 -115 107 -11 115 20 199 73 199 13 0 33 -9 43 -19z"/>
 <path d="M888 1915 c-30 -17 -33 -22 -18 -45 8 -12 13 -13 30 -2 30 19 75 15 96 -9 16 -18 19 -40 22 -160 l4 -139 -61 0 c-58 0 -61 -1 -61 -25 0 -25 1 -25 80 -25 l80 0 0 175 0 175 -28 31 c-34 38 -100 49 -144 24z"/>
 <path d="M1205 1921 c-11 -5 -29 -19 -40 -31 -18 -20 -20 -39 -23 -201 -3 -173 -3 -179 17 -179 18 0 19 8 23 164 3 144 5 166 22 185 11 12 31 21 46 21 15 0 35 -9 46 -21 17 -19 19 -41 22 -185 4 -156 5 -164 23 -164 20 0 20 6 17 180 -3 178 -3 180 -29 206 -28 28 -89 40 -124 25z"/>
 <path d="M2894 1921 c-12 -5 -31 -22 -43 -37 -20 -25 -21 -38 -21 -200 0 -165 1 -174 19 -174 19 0 20 10 23 164 3 145 5 166 22 185 24 27 68 27 92 0 17 -19 19 -41 23 -185 3 -155 4 -164 23 -164 19 0 19 7 16 180 -3 178 -3 180 -29 206 -28 28 -89 40 -125 25z"/>
 <path d="M1420 1720 l0 -200 26 -6 c14 -4 48 -4 76 -2 42 4 57 11 80 37 23 26 28 40 28 86 0 46 -5 59 -29 88 l-30 33 23 40 c12 21 30 58 39 82 l17 42 -25 0 c-15 0 -28 -7 -32 -17 -3 -10 -19 -46 -35 -80 -26 -56 -32 -63 -59 -63 l-29 0 0 80 c0 79 0 80 -25 80 l-25 0 0 -200z m122 -14 c35 -8 54 -59 38 -102 -14 -36 -26 -44 -72 -44 l-38 0 0 73 c0 78 4 90 29 83 9 -2 28 -7 43 -10z"/>
 <path d="M1720 1895 c0 -22 4 -25 35 -25 l35 0 0 -155 0 -155 -35 0 c-31 0 -35 -3 -35 -25 0 -25 1 -25 90 -25 89 0 90 0 90 25 0 21 -5 25 -30 25 l-30 0 0 155 0 155 30 0 c25 0 30 4 30 25 0 25 -1 25 -90 25 -89 0 -90 0 -90 -25z"/>
 <path d="M1987 1913 c-4 -3 -7 -93 -7 -199 0 -214 -3 -204 72 -204 55 0 103 25 130 69 20 31 23 49 23 136 0 114 -14 153 -68 185 -32 20 -135 29 -150 13z m136 -61 c29 -25 38 -58 38 -133 1 -109 -31 -159 -100 -159 l-31 0 0 153 c0 85 3 157 7 161 12 11 64 -2 86 -22z"/>
 <path d="M2290 1895 c0 -21 5 -25 30 -25 l30 0 0 -155 0 -155 -30 0 c-25 0 -30 -4 -30 -25 l0 -26 88 3 c82 3 87 4 90 26 3 19 -1 22 -32 22 l-36 0 0 154 0 155 33 3 c24 2 33 8 35 26 3 21 1 22 -87 22 -90 0 -91 0 -91 -25z"/>
 <path d="M3130 1715 l0 -206 98 3 c92 3 97 4 100 26 3 21 0 22 -72 22 l-76 0 0 60 0 60 65 0 c63 0 65 1 65 25 0 24 -2 25 -65 25 l-65 0 0 70 0 70 80 0 c79 0 80 0 80 25 l0 25 -105 0 -105 0 0 -205z"/>
 </g>
<g id="layer103" fill="#e9eeef" stroke="none">
 <path d="M2732 2023 c-32 -6 -160 -138 -180 -185 -40 -97 -15 -267 47 -315 29 -23 88 -15 122 15 44 40 58 88 55 196 -3 99 -23 148 -71 180 -30 20 -24 38 20 59 23 11 35 24 35 37 0 11 -1 19 -2 19 -2 -1 -13 -4 -26 -6z m-42 -153 c31 -22 42 -60 44 -150 3 -111 -34 -178 -91 -166 -42 9 -54 37 -60 137 -7 106 7 163 46 184 33 18 28 18 61 -5z"/>
 <path d="M888 1910 c-14 -9 -22 -22 -20 -32 4 -21 13 -23 29 -7 6 6 28 11 48 12 28 1 42 -5 56 -22 17 -20 19 -41 19 -162 l0 -139 -60 0 c-57 0 -60 -1 -60 -25 0 -25 1 -25 81 -25 l81 0 -4 180 c-3 178 -3 180 -29 205 -31 31 -103 39 -141 15z"/>
 <path d="M1203 1919 c-10 -4 -27 -17 -38 -29 -18 -20 -20 -39 -23 -201 -4 -176 -4 -179 17 -179 20 0 21 5 21 138 0 181 5 209 41 227 36 19 76 5 89 -30 6 -15 10 -96 10 -181 0 -150 1 -154 21 -154 21 0 21 3 17 180 -3 177 -3 180 -29 205 -26 26 -88 38 -126 24z"/>
 <path d="M2892 1919 c-9 -4 -26 -17 -37 -29 -18 -20 -20 -39 -23 -201 -4 -176 -3 -179 17 -179 20 0 21 5 21 164 l0 164 31 27 c18 14 38 24 46 21 8 -4 19 -6 24 -6 9 0 40 -54 38 -67 -1 -4 -1 -74 0 -155 1 -143 2 -148 22 -148 20 0 21 3 17 173 -3 183 -8 203 -55 228 -25 14 -75 17 -101 8z"/>
 <path d="M1432 1718 l3 -203 68 1 c78 1 101 16 118 75 15 49 5 101 -27 132 l-25 25 37 78 c20 44 39 82 41 87 2 4 -6 7 -19 7 -17 0 -27 -9 -36 -32 -7 -18 -23 -53 -35 -78 -20 -40 -26 -45 -59 -48 l-38 -3 0 80 c0 66 -3 81 -15 81 -13 0 -15 -27 -13 -202z m134 -27 c27 -26 32 -75 9 -105 -13 -18 -92 -39 -107 -30 -9 6 -11 148 -2 157 14 14 77 0 100 -22z"/>
 <path d="M1732 1898 c2 -17 11 -24 31 -26 l27 -3 0 -155 0 -154 -31 0 c-26 0 -30 -3 -27 -22 3 -21 9 -23 86 -26 82 -3 82 -3 82 23 0 21 -5 25 -30 25 l-30 0 0 144 c0 79 -3 151 -6 160 -5 12 1 14 30 9 34 -5 36 -4 36 21 l0 26 -86 0 c-83 0 -85 -1 -82 -22z"/>
 <path d="M1998 1913 c-16 -4 -18 -22 -18 -198 0 -208 -2 -201 55 -200 83 3 95 6 123 34 60 61 69 248 14 313 -41 48 -108 68 -174 51z m133 -65 c26 -33 35 -77 33 -149 -3 -93 -35 -137 -106 -145 l-28 -4 0 159 c0 87 3 161 7 165 14 13 78 -5 94 -26z"/>
 <path d="M2290 1894 c0 -25 2 -26 36 -21 29 5 35 3 30 -9 -3 -9 -6 -81 -6 -160 l0 -144 -30 0 c-25 0 -30 -4 -30 -25 l0 -26 88 3 c82 3 87 4 90 26 3 19 -1 22 -32 22 l-36 0 0 154 0 155 33 3 c24 2 33 8 35 26 3 21 1 22 -87 22 l-91 0 0 -26z"/>
 <path d="M3130 1715 l0 -206 98 3 c92 3 97 4 100 26 3 21 0 22 -72 22 l-76 0 0 49 c0 27 -2 55 -5 63 -4 10 9 13 57 13 58 0 63 2 66 23 3 21 0 22 -57 22 l-61 0 0 59 c0 33 -2 65 -5 73 -4 10 12 13 72 13 73 0 78 1 81 23 3 22 1 22 -97 22 l-101 0 0 -205z"/>
 </g>

</svg>