<!DOCTYPE svg PUBLIC "-//W3C//DTD SVG 20010904//EN" "http://www.w3.org/TR/2001/REC-SVG-20010904/DTD/svg10.dtd">
<svg version="1.0" xmlns="http://www.w3.org/2000/svg" width="412px" height="337px" viewBox="0 0 4120 3370" preserveAspectRatio="xMidYMid meet">
<g id="layer101" fill="#002060" stroke="none">
 <path d="M924 3363 l-51 -4 -436 -818 c-240 -449 -437 -823 -437 -831 0 -7 197 -395 437 -862 l437 -848 1171 0 1171 0 452 833 c249 458 452 840 452 847 0 7 -201 391 -447 852 l-447 838 -1125 -2 c-620 -1 -1149 -3 -1177 -5z"/>
 </g>
<g id="layer102" fill="#eaeef0" stroke="none">
 <path d="M520 1923 c-62 -24 -95 -115 -87 -235 6 -97 30 -146 81 -172 33 -16 41 -17 74 -5 28 11 43 25 61 62 46 93 37 258 -17 318 -27 30 -80 45 -112 32z m84 -76 c26 -36 35 -170 14 -232 -16 -47 -58 -76 -85 -59 -48 29 -70 167 -43 266 18 64 76 76 114 25z"/>
 <path d="M1082 1910 c-89 -56 -108 -267 -31 -355 40 -45 84 -59 134 -43 41 14 50 25 37 46 -7 9 -16 10 -40 1 -70 -24 -121 29 -130 137 -8 110 37 190 105 182 28 -3 28 -4 31 -80 3 -70 5 -78 22 -78 18 0 20 7 20 94 0 52 -4 98 -10 101 -5 3 -31 8 -57 11 -38 4 -55 1 -81 -16z"/>
 <path d="M2173 1919 c-26 -8 -33 -15 -33 -35 0 -23 3 -25 23 -19 12 4 41 10 64 12 32 4 45 1 62 -16 41 -41 15 -91 -74 -139 -63 -34 -84 -81 -66 -142 15 -50 49 -73 106 -72 42 0 85 16 85 30 -1 25 -17 30 -57 19 -53 -14 -93 8 -93 51 0 36 6 43 71 84 71 45 89 71 89 126 0 56 -14 80 -55 98 -39 16 -75 17 -122 3z"/>
 <path d="M3318 1914 c-44 -23 -61 -68 -66 -172 -7 -157 32 -235 118 -235 85 0 125 77 118 230 -3 79 -8 105 -26 134 -35 57 -90 73 -144 43z m106 -74 c27 -46 29 -198 3 -247 -28 -53 -85 -56 -111 -4 -35 67 -28 230 11 274 27 29 73 19 97 -23z"/>
 <path d="M732 1718 l3 -203 57 -3 c73 -4 114 16 135 66 21 50 12 107 -23 143 l-28 29 37 75 c20 42 37 80 37 85 0 6 -10 10 -23 10 -18 0 -26 -10 -40 -48 -30 -82 -53 -112 -87 -112 l-30 0 0 80 c0 74 -2 80 -20 80 -20 0 -20 -5 -18 -202z m141 -30 c21 -25 22 -76 1 -106 -12 -17 -25 -22 -60 -22 l-44 0 0 73 c0 41 3 76 6 80 12 12 80 -6 97 -25z"/>
 <path d="M1287 1818 c22 -94 48 -191 74 -275 9 -27 16 -33 39 -33 23 0 30 6 39 33 17 52 91 346 91 362 0 9 -9 15 -24 15 -20 0 -24 -7 -32 -52 l-9 -53 -67 -3 -67 -3 -6 38 c-11 66 -15 73 -40 73 l-23 0 25 -102z m163 -60 c0 -14 -41 -171 -46 -177 -8 -9 -14 7 -38 97 l-25 92 55 0 c35 0 54 -4 54 -12z"/>
 <path d="M1570 1715 l0 -205 24 0 c20 0 30 14 69 103 24 56 53 125 63 152 l19 50 3 -152 c2 -145 4 -153 22 -153 19 0 20 8 20 205 l0 205 -23 0 c-20 0 -30 -18 -82 -150 -32 -82 -63 -150 -67 -150 -4 0 -8 68 -8 150 0 143 -1 150 -20 150 -19 0 -20 -7 -20 -205z"/>
 <path d="M1870 1895 c0 -22 4 -25 35 -25 l35 0 0 -155 0 -155 -35 0 c-31 0 -35 -3 -35 -25 0 -25 1 -25 90 -25 89 0 90 0 90 25 0 21 -5 25 -30 25 l-30 0 0 155 0 155 30 0 c25 0 30 4 30 25 0 25 -1 25 -90 25 -89 0 -90 0 -90 -25z"/>
 <path d="M2396 1893 c16 -73 84 -331 93 -355 12 -33 55 -39 70 -10 8 15 101 370 101 386 0 3 -11 6 -25 6 -20 0 -25 -6 -30 -37 -13 -77 -10 -74 -83 -71 l-67 3 -8 53 c-8 46 -11 52 -33 52 -21 0 -24 -3 -18 -27z m181 -140 c-28 -108 -51 -183 -54 -179 -5 4 -53 176 -53 188 0 5 25 8 56 8 48 0 55 -2 51 -17z"/>
 <path d="M2780 1740 l0 -180 -45 0 c-41 0 -45 -2 -45 -25 l0 -26 118 3 c113 3 117 4 120 26 3 20 0 22 -47 22 l-51 0 0 180 0 180 -25 0 -25 0 0 -180z"/>
 <path d="M3000 1895 c0 -22 4 -25 35 -25 l36 0 -3 -152 -3 -153 -32 -3 c-27 -3 -33 -7 -33 -28 0 -24 1 -24 90 -24 89 0 90 0 90 25 0 22 -4 25 -35 25 l-35 0 0 155 0 155 35 0 c31 0 35 3 35 25 0 25 -1 25 -90 25 -89 0 -90 0 -90 -25z"/>
 <path d="M3540 1715 l0 -205 24 0 c19 0 29 14 63 88 22 48 51 116 64 152 l24 65 3 -152 c2 -145 4 -153 22 -153 19 0 20 8 20 205 l0 205 -24 0 c-17 0 -27 -7 -31 -22 -18 -62 -109 -278 -116 -278 -5 0 -9 68 -9 150 0 143 -1 150 -20 150 -19 0 -20 -7 -20 -205z"/>
 </g>

</svg>